<?xml version="1.0" encoding="utf-8"?><svg xml:space="preserve" viewBox="0 0 100 100" y="0" x="0" xmlns="http://www.w3.org/2000/svg" id="圖層_1" version="1.1" width="200px" height="200px" xmlns:xlink="http://www.w3.org/1999/xlink" style="width:100%;height:100%;background-size:initial;background-repeat-y:initial;background-repeat-x:initial;background-position-y:initial;background-position-x:initial;background-origin:initial;background-color:initial;background-clip:initial;background-attachment:initial;animation-play-state:paused" ><g class="ldl-scale" style="transform-origin:50% 50%;transform:rotate(0deg) scale(0.8, 0.8);animation-play-state:paused" ><path fill="#e0e0e0" d="M33.291 47.247h2.21a2.72 2.72 0 0 1 2.692 2.37l1.869 14.618.377 2.945 2.603-.445 28.374-4.855c.984-.147 1.957.149 2.736.823.881.762 1.386 1.901 1.386 3.126v23.705h-64.75V75.66c0-1.988 1.359-3.685 3.197-3.954l3.291-.563 2.719-.465.393-3.077 2.3-17.984a2.719 2.719 0 0 1 2.691-2.37h7.912z" style="fill:rgb(224, 224, 224);animation-play-state:paused" ></path>
<path d="M76.092 60.459a6.41 6.41 0 0 0-5.14-1.509l-28.287 4.84-1.854-14.508a5.365 5.365 0 0 0-5.308-4.673H25.379a5.363 5.363 0 0 0-5.307 4.673L17.67 68.067l-4.148.71c-3.25.473-5.701 3.433-5.701 6.884V92.5h70.682V65.828c.001-2.087-.878-4.043-2.411-5.369zm-.555 29.074H10.788V75.66c0-1.988 1.359-3.685 3.197-3.954l3.291-.563 2.719-.465.393-3.077 2.3-17.984a2.719 2.719 0 0 1 2.691-2.37H35.5a2.72 2.72 0 0 1 2.692 2.37l1.869 14.618.377 2.945 2.603-.445 28.374-4.855c.984-.147 1.957.149 2.736.823.881.762 1.386 1.901 1.386 3.126v23.704z" style="animation-play-state:paused" ></path>
<circle fill="#666" r="5.185" cy="35.481" cx="86.994" id="XMLID_722_" style="fill:rgb(102, 102, 102);animation-play-state:paused" ></circle>
<path fill="none" d="M22.689 49.617l-2.3 17.984-.393 3.077-2.719.465-3.291.563c-1.839.268-3.197 1.965-3.197 3.954v13.873h64.749V65.828c0-1.225-.505-2.364-1.386-3.126-.779-.674-1.752-.97-2.736-.823l-28.374 4.855-2.603.445-.377-2.945-1.869-14.618a2.72 2.72 0 0 0-2.692-2.37H25.381a2.722 2.722 0 0 0-2.692 2.371z" style="animation-play-state:paused" ></path>
<path fill="#666" d="M33.956 44.609a4.239 4.239 0 0 0-3.059-3.759l.054-.068a7.55 7.55 0 0 0 2.574.458 7.573 7.573 0 0 0 6.698-4.039c2.011 3.06 5.469 5.083 9.405 5.083 3.557 0 6.723-1.654 8.783-4.233.761-.952 2.059-1.24 3.127-.652a12.583 12.583 0 0 0 6.09 1.562c6.991 0 12.658-5.667 12.658-12.658 0-.754-.078-1.488-.204-2.205a7.632 7.632 0 0 0 1.729.204 7.626 7.626 0 0 0 7.623-7.863c-.123-4.08-3.606-7.424-7.688-7.39-3.559.03-6.528 2.5-7.336 5.817-.081.333-.469.474-.77.31a12.411 12.411 0 0 0-2.059-.893c.016-.18.028-.36.028-.544a6.24 6.24 0 0 0-6.248-6.24c-3.312.004-6.136 2.755-6.229 6.065a6.154 6.154 0 0 0 .338 2.194c.144.417-.002.868-.329 1.164a12.673 12.673 0 0 0-2.683 3.444c-.344.648-1.128.94-1.786.614l-.154-.075c-.559-.266-.856-.861-.768-1.474a7.49 7.49 0 0 0-.156-2.927c-.787-3.111-3.468-5.493-6.659-5.828a7.7 7.7 0 0 0-6.803 2.789 2.693 2.693 0 0 1-2.684.929 8.417 8.417 0 0 0-3.516-.021c-3.385.691-6.059 3.487-6.592 6.9a8.379 8.379 0 0 0 1.581 6.378 7.594 7.594 0 0 0-2.202 2.693 6.556 6.556 0 0 0-.772-.051 6.437 6.437 0 0 0-6.438 6.438 6.434 6.434 0 0 0 6.346 6.433 4.25 4.25 0 0 0-.372 1.441h-.103-.001 10.123H33.956z" style="fill:rgb(102, 102, 102);animation-play-state:paused" ></path>
<path fill="#77a4bd" d="M22.602 84.354h-4.403a1.736 1.736 0 0 1-1.736-1.736v-1.861c0-.959.777-1.736 1.736-1.736h4.403c.959 0 1.736.777 1.736 1.736v1.861c0 .958-.777 1.736-1.736 1.736z" style="fill:rgb(119, 164, 189);animation-play-state:paused" ></path>
<path fill="#77a4bd" d="M33.983 84.354H29.58a1.736 1.736 0 0 1-1.736-1.736v-1.861c0-.959.777-1.736 1.736-1.736h4.403c.959 0 1.736.777 1.736 1.736v1.861c0 .958-.777 1.736-1.736 1.736z" style="fill:rgb(119, 164, 189);animation-play-state:paused" ></path>
<path fill="#77a4bd" d="M45.364 84.354h-4.403a1.736 1.736 0 0 1-1.736-1.736v-1.861c0-.959.777-1.736 1.736-1.736h4.403c.959 0 1.736.777 1.736 1.736v1.861c0 .958-.777 1.736-1.736 1.736z" style="fill:rgb(119, 164, 189);animation-play-state:paused" ></path>
<path fill="#77a4bd" d="M56.745 84.354h-4.403a1.736 1.736 0 0 1-1.736-1.736v-1.861c0-.959.777-1.736 1.736-1.736h4.403c.959 0 1.736.777 1.736 1.736v1.861a1.736 1.736 0 0 1-1.736 1.736z" style="fill:rgb(119, 164, 189);animation-play-state:paused" ></path>
<path fill="#77a4bd" d="M68.126 84.354h-4.403a1.736 1.736 0 0 1-1.736-1.736v-1.861c0-.959.777-1.736 1.736-1.736h4.403c.959 0 1.736.777 1.736 1.736v1.861a1.736 1.736 0 0 1-1.736 1.736z" style="fill:rgb(119, 164, 189);animation-play-state:paused" ></path>
<metadata xmlns:d="https://loading.io/stock/" style="animation-play-state:paused" ><d:name style="animation-play-state:paused" >industry</d:name>


<d:tags style="animation-play-state:paused" >factory,workshop,chimney,smoke,waste,manufacture,industry,business</d:tags>


<d:license style="animation-play-state:paused" >by</d:license>


<d:slug style="animation-play-state:paused" >g1oc2g</d:slug></metadata></g><!-- generated by https://loading.io/ --></svg>